<svg width="400" height="43" viewBox="0 0 400 43" fill="none" xmlns="http://www.w3.org/2000/svg">
<path d="M48.2205 24.0313C47.1572 25.0975 46.1684 26.0891 45.1796 27.0923C45.0775 27.2097 45.0144 27.3559 44.999 27.5107C44.8614 29.517 44.0102 30.4686 42.024 30.8125C41.9726 30.827 41.9227 30.8461 41.8749 30.8698C41.5883 33.3892 40.4734 34.4553 38.1977 34.3579C38.1203 35.4327 37.7248 36.3642 36.7789 36.9603C35.8331 37.5565 34.873 37.5708 33.824 37.181C33.7887 37.2653 33.7581 37.3514 33.7323 37.439C33.2794 39.5943 31.1527 40.5917 29.2038 39.5485C28.1175 38.9552 27.0485 38.3332 25.9909 37.6941C25.9335 37.6431 25.8663 37.6047 25.7933 37.5811C25.7204 37.5576 25.6433 37.5495 25.567 37.5573C25.4908 37.5651 25.4169 37.5887 25.3503 37.6265C25.2836 37.6644 25.2255 37.7157 25.1797 37.7772C24.836 38.1143 24.4753 38.4338 24.0992 38.7345C22.3079 40.222 19.8287 39.5169 19.0835 37.3014C19.0548 37.2183 19.0233 37.1352 18.9803 37.0148C17.9571 37.5106 16.9368 37.588 15.9365 37.0521C15.474 36.8013 15.0808 36.44 14.7917 36.0005C14.5027 35.5609 14.3269 35.0567 14.2799 34.5327C13.7897 34.6511 13.2783 34.6501 12.7885 34.5299C12.2988 34.4097 11.845 34.1738 11.4653 33.842C11.0939 33.5248 10.7981 33.1285 10.5998 32.6822C10.4014 32.2358 10.3054 31.7507 10.3189 31.2625C7.37825 31.0389 6.32352 28.3562 7.60181 26.2783L6.37511 25.3325C6.20314 25.599 6.0627 25.8369 5.90793 26.0605C5.60412 26.5047 5.24012 26.6136 4.76148 26.3471C3.30549 25.5446 1.86097 24.7249 0.410707 23.9109C-0.0220778 23.6529 -0.0564712 23.2746 0.0524415 22.8103C1.38232 17.036 2.70265 11.2598 4.01342 5.48171C4.18253 4.74512 4.34589 4.00566 4.52933 3.27193C4.71276 2.5382 5.27165 2.30604 5.89647 2.78755C8.91927 5.11294 11.9344 7.44118 14.942 9.7723C15.3633 10.0962 15.4292 10.4774 15.2286 11.0277C16.7218 10.9331 18.1549 10.8786 19.5793 10.741C21.3793 10.5633 23.1706 10.2595 24.9734 10.1248C25.6441 10.0761 26.3348 10.3656 27.0198 10.4688C27.2727 10.5313 27.5386 10.5153 27.7822 10.4229C29.1465 9.56307 30.5365 9.50575 32.024 10.0876C33.0702 10.4946 34.165 10.7754 35.2284 11.1423C36.8735 11.7155 38.427 11.4547 39.9689 10.6465C39.7053 10.056 40.0177 9.70351 40.4705 9.35671C43.3691 7.12878 46.262 4.88747 49.1491 2.63278C49.9803 2.00224 50.4991 2.15701 50.7312 3.14869C52.2216 9.62421 53.7101 16.1007 55.1967 22.5781C55.2683 22.79 55.2577 23.0211 55.1669 23.2255C55.0761 23.4299 54.9118 23.5927 54.7065 23.6816C53.3193 24.4497 51.9407 25.2408 50.5507 26.0117C49.9431 26.3471 49.6249 26.2582 49.2523 25.6764C48.9141 25.1634 48.5902 24.6446 48.2205 24.0313ZM26.7246 36.3556C27.808 36.9775 28.8828 37.6195 29.9805 38.2186C30.3199 38.4182 30.7241 38.4763 31.106 38.3803C31.4878 38.2843 31.8166 38.0419 32.0212 37.7055C32.1253 37.541 32.1958 37.3575 32.2288 37.1656C32.2618 36.9737 32.2566 36.7772 32.2134 36.5873C32.1703 36.3975 32.0901 36.218 31.9774 36.0592C31.8647 35.9004 31.7218 35.7654 31.5569 35.662C31.061 35.3037 30.5537 34.9684 30.0522 34.6216C28.7079 33.6786 27.3523 32.7471 26.0167 31.7899C25.5781 31.4746 25.5122 31.0533 25.773 30.6864C26.0338 30.3195 26.4523 30.2794 26.9023 30.546C27.0284 30.6205 27.1516 30.7007 27.2749 30.7838L32.5571 34.441C33.1648 34.8623 33.758 35.3009 34.38 35.6992C34.609 35.8447 34.8755 35.9203 35.1468 35.9168C35.4181 35.9132 35.6825 35.8307 35.9076 35.6792C36.1412 35.5439 36.3319 35.3455 36.4576 35.1067C36.5834 34.8678 36.6391 34.5984 36.6184 34.3292C36.602 34.0702 36.5213 33.8192 36.3837 33.5991C36.2461 33.3789 36.0559 33.1965 35.8303 33.0681C33.5087 31.4268 31.191 29.7797 28.877 28.127C28.6478 27.9636 28.3669 27.7314 28.321 27.4907C28.2752 27.2499 28.4127 26.7741 28.6076 26.6968C28.7684 26.6338 28.9408 26.6058 29.1133 26.6147C29.2858 26.6236 29.4544 26.6692 29.6079 26.7483C31.3018 27.8948 32.9641 29.1014 34.6351 30.288C35.6726 31.0275 36.6958 31.7841 37.7448 32.5064C38.05 32.7232 38.4217 32.8256 38.7949 32.7957C39.168 32.7659 39.5187 32.6056 39.7855 32.343C40.0453 32.102 40.2137 31.7785 40.2623 31.4275C40.3108 31.0765 40.2366 30.7195 40.0521 30.417C39.8599 30.1475 39.6211 29.9146 39.347 29.7291C36.5439 27.7075 33.7466 25.686 30.955 23.6644C30.4219 23.2803 30.3015 22.8561 30.591 22.4578C30.8805 22.0594 31.3018 22.045 31.8549 22.4291C32.4081 22.8132 32.8867 23.1456 33.3941 23.5125L40.8832 28.9438C41.9064 29.6804 43.2621 29.1559 43.4398 27.9435C43.5373 27.2585 43.2105 26.7512 42.6803 26.3242C39.0203 23.3577 35.3573 20.3941 31.7317 17.3847C31.0954 16.8602 30.5853 16.5249 29.8343 17.1124C29.6771 17.2093 29.506 17.2818 29.327 17.3274C26.6787 18.3105 24.0763 18.4051 21.5312 16.9548C21.2259 16.8054 20.9696 16.572 20.7924 16.282C20.6151 15.9921 20.5243 15.6575 20.5307 15.3177C20.537 14.9779 20.6402 14.647 20.828 14.3638C21.0159 14.0806 21.2807 13.8569 21.5914 13.7189C22.4512 13.2747 23.2852 12.8219 24.1307 12.3719L25.3259 11.7471C25.2784 11.7097 25.2238 11.6824 25.1654 11.6668C25.1069 11.6539 25.0462 11.6539 24.9877 11.6668C21.5537 12.183 18.09 12.4769 14.6181 12.5467C14.4741 12.5477 14.3337 12.5913 14.2143 12.6718C14.095 12.7524 14.0022 12.8664 13.9474 12.9996C11.7692 16.5421 9.5909 20.0827 7.41265 23.6214C7.34099 23.7418 7.26934 23.8679 7.18909 24.0112C7.61327 24.3351 8.026 24.6188 8.39859 24.9456C8.6852 25.1892 8.85431 25.1347 9.09793 24.9054C9.59663 24.4382 10.1125 23.9854 10.6428 23.5526C11.0283 23.2252 11.4882 22.9974 11.9823 22.889C12.4764 22.7807 12.9894 22.7952 13.4766 22.9313C13.9637 23.0674 14.4101 23.3209 14.7765 23.6695C15.1429 24.0182 15.4182 24.4514 15.5782 24.9312C15.6241 25.0602 15.6785 25.1863 15.733 25.3181C17.6218 24.1889 20.422 25.2064 20.6226 28.1843C22.6891 28.3419 23.7753 29.4798 23.9358 31.5204C26.2287 31.572 28.0201 33.7388 26.7217 36.3671L26.7246 36.3556ZM40.846 12.0337C40.7858 12.0337 40.7227 12.0537 40.6625 12.0681C40.5422 12.1168 40.4218 12.1626 40.3043 12.2171C39.3549 12.6792 38.319 12.9363 37.2638 12.9719C36.2086 13.0075 35.1577 12.8206 34.1794 12.4235C33.096 12.0136 31.9725 11.7012 30.8661 11.3487C30.5867 11.2491 30.2896 11.2085 29.9937 11.2292C29.6978 11.2499 29.4093 11.3316 29.1465 11.469C26.8937 12.6499 24.6438 13.8393 22.3967 15.0374C21.9554 15.2724 21.9525 15.4243 22.3967 15.6736C23.5226 16.3309 24.8236 16.6252 26.1227 16.5163C27.5985 16.3802 29.0253 15.9161 30.2986 15.1577C30.4785 15.0274 30.6976 14.9629 30.9194 14.9749C31.1411 14.9869 31.352 15.0747 31.5167 15.2237C35.793 18.7203 40.0721 22.2027 44.2939 25.6449L47.3578 22.5867L40.846 12.0337ZM5.81335 4.65053C5.7417 4.89702 5.69297 5.07472 5.65285 5.24669C5.22293 7.11922 4.79396 8.98984 4.36596 10.8586C3.48701 14.6992 2.60998 18.5474 1.73486 22.4033C1.70046 22.5638 1.73486 22.8533 1.82944 22.9135C2.85264 23.524 3.89878 24.0972 4.96211 24.6933L13.5834 10.6665L5.81335 4.65053ZM49.4329 4.36392L41.6514 10.3828L50.2727 24.4182C51.2701 23.845 52.2245 23.3061 53.1961 22.7845C53.2634 22.7617 53.3253 22.7253 53.3779 22.6775C53.4305 22.6297 53.4727 22.5716 53.5017 22.5067C53.5308 22.4419 53.5461 22.3717 53.5468 22.3007C53.5475 22.2296 53.5335 22.1592 53.5056 22.0938C52.878 19.4569 52.2875 16.8115 51.6828 14.1689L49.4329 4.36392ZM13.721 33.0882C14.0327 32.9744 14.3277 32.8192 14.598 32.6268C15.905 31.5233 17.1976 30.3769 18.4616 29.2304C18.6295 29.0983 18.7677 28.9323 18.867 28.7431C18.9662 28.5539 19.0244 28.3459 19.0377 28.1326C19.0509 27.9194 19.019 27.7057 18.9439 27.5057C18.8688 27.3057 18.7523 27.1238 18.602 26.9719C18.4665 26.8081 18.2989 26.6737 18.1096 26.5772C17.9202 26.4806 17.713 26.4238 17.5009 26.4104C17.2887 26.397 17.0761 26.4272 16.876 26.4991C16.676 26.571 16.4928 26.6832 16.3378 26.8286C15.0107 27.975 13.7009 29.1416 12.3968 30.3138C12.1528 30.5184 11.9828 30.7976 11.9129 31.1083C11.8429 31.419 11.877 31.744 12.0099 32.0335C12.1591 32.3586 12.4012 32.6322 12.7057 32.82C13.0102 33.0077 13.3635 33.101 13.721 33.0882ZM15.7273 34.2805C15.8562 34.9741 16.1457 35.4499 16.7018 35.7136C16.9604 35.857 17.257 35.917 17.5511 35.8852C17.8451 35.8533 18.1221 35.7313 18.344 35.5359C19.5335 34.5127 20.7172 33.4809 21.8751 32.4233C22.1671 32.1446 22.3386 31.763 22.3533 31.3597C22.3679 30.9564 22.2244 30.5633 21.9534 30.2643C21.6824 29.9653 21.3053 29.7839 20.9025 29.7589C20.4997 29.7339 20.1031 29.8672 19.7972 30.1304C18.6307 31.1507 17.4641 32.171 16.3378 33.243C16.0511 33.4923 15.9222 33.9251 15.7215 34.2805H15.7273ZM8.51324 28.0066C8.53596 28.3187 8.63928 28.6196 8.8131 28.8798C8.98692 29.14 9.2253 29.3507 9.50492 29.4912C9.77608 29.6383 10.0871 29.6951 10.3927 29.6534C10.6984 29.6116 10.9828 29.4735 11.2045 29.2591C12.0013 28.5712 12.7895 27.8747 13.5777 27.1754C14.3171 26.5248 14.4203 25.6076 13.8385 24.9198C13.2567 24.2319 12.3051 24.1488 11.5313 24.8137C10.7574 25.4787 9.89758 26.2038 9.13232 26.949C8.85144 27.2241 8.71387 27.6512 8.51324 28.0066ZM20.3962 36.3556C20.4142 36.6576 20.5092 36.95 20.6723 37.2049C20.8353 37.4598 21.061 37.6687 21.3277 37.8116C21.5865 37.9613 21.8856 38.0263 22.1832 37.9975C22.4807 37.9687 22.7619 37.8476 22.9872 37.6511C23.7409 37.0263 24.4775 36.3814 25.1855 35.7107C25.4532 35.4312 25.6053 35.0607 25.6112 34.6737C25.6172 34.2867 25.4766 33.9118 25.2176 33.6241C24.9586 33.3365 24.6004 33.1574 24.2149 33.1229C23.8294 33.0883 23.4451 33.2009 23.1391 33.4379C22.4053 34.057 21.6745 34.6818 20.9923 35.3524C20.7506 35.6593 20.5501 35.9966 20.3962 36.3556Z" fill="white"/>
<path d="M389.22 7.16257C387.816 7.16257 386.821 6.38012 386.801 5.22507H387.776C387.836 5.7983 388.249 6.39158 389.209 6.39158C390.094 6.39158 390.616 5.88714 390.616 5.22507C390.616 3.33916 386.83 4.54293 386.83 1.94336C386.83 0.796909 387.764 0.00585938 389.149 0.00585938C390.484 0.00585938 391.358 0.739587 391.467 1.80292H390.464C390.404 1.33001 389.963 0.799776 389.108 0.788311C388.358 0.768248 387.764 1.16091 387.764 1.9147C387.764 3.72036 391.539 2.59684 391.539 5.18494C391.536 6.17089 390.722 7.16257 389.22 7.16257Z" fill="white"/>
<path d="M392.883 0.138184H393.866L396.446 5.87043L399.025 0.138184H400V7.08567H399.086V1.90658L396.793 7.08567H396.148L393.806 1.89512V7.08567H392.895L392.883 0.138184Z" fill="white"/>
<path d="M71.1754 31.7742C65.6066 31.7742 61.6656 28.6702 61.5883 24.0959H65.4461C65.6839 26.3888 67.3148 28.7103 71.1783 28.7103C74.6778 28.7103 76.7472 26.7213 76.7472 24.0959C76.7472 16.6153 61.7488 21.3903 61.7488 11.0865C61.7488 6.50075 65.4489 3.4082 70.9404 3.4082C76.2399 3.4082 79.6792 6.30299 80.1263 10.5305H76.1482C75.9103 8.65894 74.1591 6.55234 70.777 6.51795C67.7934 6.4377 65.4461 7.98827 65.4461 10.9719C65.4461 18.1372 80.4044 13.6775 80.4044 23.944C80.4044 27.8763 77.1828 31.7742 71.1754 31.7742Z" fill="white"/>
<path d="M86.5321 12.6769H83.7061V9.69322H86.5321V4.20459H90.152V9.69322H95.8412V12.6769H90.152V25.5285C90.152 27.6753 90.9459 28.4319 93.1757 28.4319H95.8412V31.4958H92.5767C88.716 31.4958 86.5292 29.9051 86.5292 25.5285L86.5321 12.6769Z" fill="white"/>
<path d="M109.2 9.33398C113.259 9.33398 116.042 11.4033 117.314 13.6704V9.69225H120.974V31.4949H117.323V27.4364C116.01 29.7838 113.187 31.8531 109.169 31.8531C103.359 31.8531 98.8649 27.2673 98.8649 20.5147C98.8649 13.7621 103.359 9.33398 109.2 9.33398ZM109.917 12.4867C105.936 12.4867 102.556 15.3901 102.556 20.5119C102.556 25.6336 105.944 28.6574 109.925 28.6574C113.906 28.6574 117.323 25.6738 117.323 20.5434C117.323 15.5019 113.903 12.4781 109.925 12.4781L109.917 12.4867Z" fill="white"/>
<path d="M127.787 12.6773H124.964V9.69371H127.79V8.14314C127.79 3.28793 130.177 1.10107 135.746 1.10107V4.12483C132.485 4.12483 131.41 5.31714 131.41 8.13741V9.68798H135.996V12.6773H131.41V31.4963H127.787V12.6773Z" fill="white"/>
<path d="M140.877 12.6773H138.051V9.69371H140.877V8.14314C140.877 3.28793 143.261 1.10107 148.833 1.10107V4.12483C145.568 4.12483 144.496 5.31714 144.496 8.13741V9.68798H149.082V12.6773H144.496V31.4963H140.877V12.6773Z" fill="white"/>
<path d="M153.287 9.69336H156.907V31.496H153.287V9.69336Z" fill="white"/>
<path d="M179.027 19.163C179.027 14.7062 176.6 12.4391 172.94 12.4391C169.28 12.4391 166.695 14.7463 166.695 19.441V31.4959H163.083V9.69331H166.695V12.7973C168.128 10.5302 170.753 9.29492 173.697 9.29492C178.749 9.29492 182.607 12.3989 182.607 18.6442V31.4959H179.027V19.163Z" fill="white"/>
<path d="M197.525 9.33398C201.507 9.33398 204.37 11.3231 205.642 13.6704V9.69225H209.302V31.9706C209.302 37.9895 205.29 42.2371 198.878 42.2371C193.146 42.2371 189.053 39.3337 188.337 34.6762H191.916C192.713 37.3045 195.299 39.0929 198.878 39.0929C202.739 39.0929 205.642 36.6281 205.642 31.9706V27.3848C204.33 29.7322 201.507 31.8417 197.525 31.8417C191.679 31.8417 187.182 27.2559 187.182 20.5033C187.182 13.7507 191.679 9.33398 197.525 9.33398ZM198.242 12.4867C194.264 12.4867 190.882 15.3901 190.882 20.5119C190.882 25.6336 194.264 28.6574 198.242 28.6574C202.22 28.6574 205.642 25.6738 205.642 20.5434C205.642 15.5019 202.22 12.4781 198.242 12.4781V12.4867Z" fill="white"/>
<path d="M226.25 3.56494C233.094 3.56494 236.516 7.50586 236.516 12.3582C236.516 15.8606 234.605 19.1624 230.308 20.4349L236.743 31.4953H229.076L223.272 20.9508H221.641V31.4953H214.831V3.56494H226.25ZM225.851 9.21694H221.635V16.1386H225.851C228.399 16.1386 229.577 14.8259 229.577 12.6362C229.592 10.5697 228.399 9.21694 225.851 9.21694Z" fill="white"/>
<path d="M250.638 31.8114C244.114 31.8114 239.42 27.4348 239.42 20.3928C239.42 13.3507 244.034 8.97412 250.638 8.97412C257.124 8.97412 261.698 13.2733 261.698 20.0345C261.697 20.6993 261.657 21.3635 261.578 22.0236H246.181C246.422 24.9327 248.207 26.2826 250.4 26.2826C252.309 26.2826 253.383 25.3282 253.939 24.1359H261.179C260.107 28.4724 256.166 31.8114 250.638 31.8114ZM246.221 18.2489H254.736C254.736 15.8213 252.825 14.4284 250.557 14.4284C248.29 14.4284 246.619 15.7812 246.221 18.2489Z" fill="white"/>
<path d="M262.971 9.29492H269.775L272.928 25.1704L276.654 9.29492H283.853L287.634 25.0901L290.738 9.29492H297.143L291.125 31.4959H283.618L280.119 17.0936L276.496 31.4959H269.018L262.971 9.29492Z" fill="white"/>
<path d="M308.163 8.97705C311.465 8.97705 313.813 10.4904 315.008 12.4393V9.28659H321.812V31.4962H315.008V28.3434C313.775 30.2953 311.428 31.8057 308.129 31.8057C302.718 31.8057 298.384 27.3489 298.384 20.3412C298.384 13.3336 302.715 8.97705 308.163 8.97705ZM310.153 14.9013C307.607 14.9013 305.3 16.8102 305.3 20.347C305.3 23.8838 307.593 25.8786 310.153 25.8786C312.712 25.8786 315.008 23.9296 315.008 20.3871C315.008 16.8446 312.741 14.9013 310.153 14.9013Z" fill="white"/>
<path d="M333.546 31.4955H326.739V9.29453H333.543V12.9947C335.094 10.6473 337.521 9.05664 340.505 9.05664V16.2592H338.636C335.412 16.2592 333.543 17.3713 333.543 21.1918L333.546 31.4955Z" fill="white"/>
<path d="M352.204 8.97638C355.148 8.97638 357.696 10.3292 359.049 12.3584V2.05469H365.85V31.4955H359.049V28.3112C357.813 30.3405 355.466 31.8136 352.204 31.8136C346.759 31.8136 342.417 27.3568 342.417 20.3492C342.417 13.3415 346.753 8.97638 352.204 8.97638ZM354.193 14.9007C351.648 14.9007 349.341 16.8095 349.341 20.3463C349.341 23.8831 351.648 25.8779 354.193 25.8779C356.739 25.8779 359.049 23.9289 359.049 20.3864C359.049 16.8439 356.779 14.9007 354.193 14.9007Z" fill="white"/>
<path d="M379.814 31.8114C373.887 31.8114 369.908 28.5096 369.59 24.2133H376.323C376.48 25.7639 377.873 26.7928 379.742 26.7928C381.493 26.7928 382.408 25.996 382.408 25.0015C382.408 21.4217 370.315 24.0069 370.315 15.8528C370.315 12.0724 373.537 8.97412 379.344 8.97412C385.076 8.97412 388.257 12.1584 388.696 16.535H382.399C382.201 15.0216 381.046 14.0271 379.137 14.0271C377.547 14.0271 376.67 14.6634 376.67 15.7468C376.67 19.2893 388.687 16.7814 388.805 25.0559C388.805 28.9109 385.383 31.8114 379.814 31.8114Z" fill="white"/>
<path d="M152.172 4.04656C152.16 3.65209 152.227 3.25918 152.369 2.89113C152.512 2.52308 152.727 2.1874 153.001 1.90402C153.276 1.62063 153.605 1.39532 153.968 1.24145C154.332 1.08759 154.722 1.0083 155.117 1.0083C155.512 1.0083 155.902 1.08759 156.266 1.24145C156.629 1.39532 156.958 1.62063 157.233 1.90402C157.507 2.1874 157.722 2.52308 157.865 2.89113C158.007 3.25918 158.074 3.65209 158.062 4.04656C158.074 4.44103 158.007 4.83394 157.865 5.20199C157.722 5.57004 157.507 5.90572 157.233 6.1891C156.958 6.47249 156.629 6.6978 156.266 6.85166C155.902 7.00553 155.512 7.08482 155.117 7.08482C154.722 7.08482 154.332 7.00553 153.968 6.85166C153.605 6.6978 153.276 6.47249 153.001 6.1891C152.727 5.90572 152.512 5.57004 152.369 5.20199C152.227 4.83394 152.16 4.44103 152.172 4.04656Z" fill="#FFC108"/>
</svg>
